# xmcd
#
# Track frame offsets: 
#        150
#        16934
#        26084
#        44370
#        52652
#        61429
#        71830
#        81916
#        92843
#        99842
#        108612
#        115303
#        126505
#        142414
#        150494
#        160738
#        167174
#        174192
#        185613
#        195062
#        209952
#        223569
#        232554
#        238442
#        242490
#        248708
#        258574
#        268568
#        286619
#        301613
#        323184
#
# Disc length: 4702 seconds
#
# Revision: 2
# Processed by: cddbd v1.5.2PL0 Copyright (c) Steve Scherf et al.
# Submitted via: ExactAudioCopy v1.0b4
#
DISCID=b1125c1f
DTITLE=Flávio José - Turnê 2013 Ao Vivo
DYEAR=2013
DGENRE=Acoustic
TTITLE0=ABERTURA
TTITLE1=EU SOU O FORRÓ
TTITLE2=A NATUREZA DAS COISAS
TTITLE3=A CASA DA SAUDADE
TTITLE4=PRA QUÊ SOLIDÃO
TTITLE5=LEMBRANÇA DE UM BEIJO
TTITLE6=ME DIZ AMOR
TTITLE7=PRA VER O AMOR NASCER
TTITLE8=ANJO MALANDRINHO
TTITLE9=DE MALA E CUIA
TTITLE10=É SEMPRE ASSIM
TTITLE11=CABRESTO
TTITLE12=TARECO E MARIOLA
TTITLE13=ARRANCHADO
TTITLE14=A DANÇA DA VIDA
TTITLE15=ESTRADAR
TTITLE16=SABIÁ
TTITLE17=AMEI ATÔA
TTITLE18=A LETRA I
TTITLE19=DOIS RUBIS
TTITLE20=DE OLHO NA JANELA
TTITLE21=SEM FERROLHO E SEM TRAMELA
TTITLE22=RIACHO DO NAVIO
TTITLE23=RESPEITA JANUÁRIO
TTITLE24=SEU OLHAR NÃO MENTE
TTITLE25=PRA QUE DIVIDIR
TTITLE26=ASAS DA ILUSÃO
TTITLE27=ME DÁ MEU CORAÇÃO
TTITLE28=ESPUMAS AO VENTO
TTITLE29=PRA VOCÊ VOLTAR PRA MIM
TTITLE30=TUDO É DO PAI - NOITES TRAIÇOEIRAS
EXTD=
EXTT0=
EXTT1=
EXTT2=
EXTT3=
EXTT4=
EXTT5=
EXTT6=
EXTT7=
EXTT8=
EXTT9=
EXTT10=
EXTT11=
EXTT12=
EXTT13=
EXTT14=
EXTT15=
EXTT16=
EXTT17=
EXTT18=
EXTT19=
EXTT20=
EXTT21=
EXTT22=
EXTT23=
EXTT24=
EXTT25=
EXTT26=
EXTT27=
EXTT28=
EXTT29=
EXTT30=
PLAYORDER=
